<svg width="48" height="48" viewBox="0 0 48 48" fill="none" xmlns="http://www.w3.org/2000/svg">
<rect width="48" height="48" fill="#0D3131"/>
<path d="M37.3477 23.9384C37.3477 16.54 31.3694 10.5425 23.9947 10.5425C16.6201 10.5425 10.6418 16.54 10.6418 23.9384C10.6418 31.3367 16.6201 37.3343 23.9947 37.3343C31.3694 37.3343 37.3477 31.3367 37.3477 23.9384ZM38.0505 23.9384C38.0505 31.7261 31.7575 38.0393 23.9947 38.0393C16.2319 38.0393 9.93896 31.7261 9.93896 23.9384C9.93896 16.1506 16.2319 9.8374 23.9947 9.8374C31.7575 9.8374 38.0505 16.1506 38.0505 23.9384Z" fill="#EFD7AB"/>
<path d="M13.0651 6.57658C14.6918 5.36632 18.6184 3.23311 22.7183 3.43248L22.92 3.4442L23.2295 3.46487L23.4983 8.76425L23.1048 8.73576H23.1018C23.0993 8.73559 23.0954 8.73517 23.09 8.73484C23.0791 8.73417 23.0622 8.73339 23.04 8.73231C22.9956 8.73016 22.9298 8.72741 22.846 8.72565C22.6782 8.72211 22.4394 8.722 22.1582 8.73622C21.5921 8.76484 20.8711 8.85042 20.2154 9.07142L19.8403 9.19801L19.1119 5.51492L21.6747 5.029L21.9621 6.91868L21.2724 7.02597L21.0945 5.85701L19.9346 6.07688L20.3722 8.2889C20.9961 8.12362 21.6268 8.05645 22.1232 8.03135C22.3724 8.01875 22.5908 8.01691 22.7614 8.01871L22.5645 4.13252C18.8268 3.99477 15.2092 5.89763 13.6031 7.05423C13.6322 7.09733 13.6642 7.14476 13.6988 7.19599C13.875 7.45688 14.1185 7.81695 14.3874 8.21377C14.8354 8.87489 15.3534 9.63677 15.7486 10.2119C16.172 9.87798 16.6928 9.60159 17.1239 9.40134C17.3791 9.28274 17.6118 9.18676 17.7889 9.1176L17.0041 7.08961L15.8345 7.60723L16.4513 8.67648L15.8483 9.03213L14.8366 7.27823L17.3895 6.14902L18.7027 9.54217L18.3542 9.65958C18.3541 9.65961 18.3538 9.6597 18.3535 9.6598C18.3529 9.66001 18.3519 9.66049 18.3505 9.66095C18.3477 9.66192 18.3433 9.66349 18.3374 9.66555C18.3254 9.66969 18.3074 9.67597 18.284 9.68439C18.237 9.70125 18.168 9.72636 18.0827 9.75929C17.9117 9.82522 17.6755 9.92159 17.4151 10.0426C16.8836 10.2895 16.2921 10.6211 15.9313 10.9859L15.6373 11.2834L15.3987 10.9388C14.9904 10.349 14.3496 9.4065 13.8117 8.61261C13.5426 8.2155 13.2989 7.85521 13.1226 7.59414C13.0344 7.46359 12.9629 7.35777 12.9136 7.28467C12.8889 7.24817 12.8697 7.21983 12.8568 7.20058C12.8503 7.19095 12.8453 7.18347 12.842 7.17852C12.8404 7.17612 12.8392 7.17425 12.8384 7.17301C12.8379 7.17239 12.8374 7.17195 12.8372 7.17163L12.837 7.17117L12.6514 6.8957L12.9124 6.69261L13.0651 6.57658Z" fill="#EFD7AB"/>
<path d="M4.94834 16.4243C5.56052 14.4842 7.50124 10.4354 10.9534 8.15991L11.1244 8.04947L11.3883 7.88226L14.7205 11.9856L14.3837 12.1965L14.3813 12.1982C14.3792 12.1995 14.3757 12.2016 14.3711 12.2045C14.3618 12.2104 14.3476 12.2198 14.329 12.2322C14.2916 12.2568 14.2364 12.2937 14.1672 12.3421C14.0286 12.4389 13.8343 12.5807 13.614 12.7592C13.1703 13.1185 12.6341 13.6157 12.2306 14.1831L11.9998 14.5078L9.24331 11.9777L11.0426 10.0642L12.3866 11.4136L11.8885 11.9097L11.057 11.075L10.2427 11.941L11.8983 13.4605C12.3087 12.9568 12.7823 12.5281 13.1714 12.2129C13.3667 12.0547 13.5433 11.9235 13.6831 11.8236L11.2396 8.81444C8.11824 10.9243 6.29357 14.6042 5.66662 16.4889C5.71561 16.5063 5.76947 16.5254 5.82771 16.5461C6.12436 16.6512 6.53401 16.7962 6.98589 16.9557C7.73873 17.2214 8.60776 17.5265 9.2671 17.7543C9.41532 17.2342 9.67663 16.7024 9.90958 16.2852C10.0475 16.0382 10.1804 15.8227 10.2838 15.6619L8.45395 14.4967L7.80663 15.608L8.93663 16.1017L8.65508 16.746L6.80161 15.9362L8.21477 13.5112L11.2766 15.4605L11.0621 15.762C11.062 15.7621 11.0619 15.7624 11.0617 15.7626C11.0613 15.7631 11.0608 15.7641 11.0599 15.7653C11.0582 15.7678 11.0555 15.7716 11.0519 15.7768C11.0447 15.7872 11.0337 15.803 11.0196 15.8237C10.9912 15.8652 10.9499 15.9264 10.8998 16.0035C10.7995 16.1582 10.664 16.376 10.5233 16.628C10.236 17.1425 9.9496 17.7607 9.87046 18.2685L9.80612 18.6825L9.40958 18.547C8.73093 18.3151 7.65592 17.9376 6.75189 17.6186C6.29969 17.459 5.8898 17.3139 5.59295 17.2087C5.44451 17.1561 5.32417 17.1134 5.24109 17.0839C5.1996 17.0692 5.16735 17.0578 5.14548 17.05C5.13454 17.0462 5.12612 17.0431 5.12051 17.0411C5.11778 17.0401 5.11572 17.0393 5.11431 17.0388C5.11361 17.0385 5.11294 17.0385 5.11258 17.0384L5.11212 17.0381L4.79928 16.9268L4.89231 16.6083L4.94834 16.4243Z" fill="#EFD7AB"/>
<path d="M4.10677 29.0011C3.47913 27.066 2.70919 22.6425 4.19943 18.7858L4.27457 18.5966L4.39237 18.3073L9.48759 19.7143L9.33571 20.0815L9.33477 20.0844C9.33383 20.0867 9.33217 20.0903 9.33015 20.0954C9.32605 20.1056 9.31995 20.1215 9.31189 20.1424C9.29577 20.1841 9.27226 20.2462 9.24398 20.3258C9.18736 20.4851 9.11144 20.7133 9.03561 20.9865C8.88292 21.5367 8.7349 22.2528 8.73563 22.949L8.7362 23.3474L5.02303 22.8872L5.3774 20.2847L7.2551 20.6033L7.13752 21.2964L5.97593 21.0994L5.81551 22.2772L8.04563 22.5535C8.08749 21.9051 8.22423 21.2812 8.35814 20.7987C8.42535 20.5565 8.49295 20.3471 8.54883 20.1846L4.81239 19.1526C3.4954 22.6825 4.1457 26.7382 4.72915 28.6367C4.77913 28.6225 4.83412 28.6068 4.89353 28.5898C5.19613 28.5033 5.61385 28.3835 6.07437 28.2511C6.84162 28.0304 7.72636 27.7744 8.39553 27.5772C8.21429 27.0676 8.11838 26.4829 8.06592 26.008C8.03485 25.7268 8.018 25.4742 8.00883 25.2832L5.84246 25.3966L5.96043 26.6773L7.16713 26.4233L7.31189 27.1115L5.33257 27.5279L5.0756 24.7329L8.70036 24.543L8.70069 24.913C8.70069 24.9131 8.70069 24.9134 8.70069 24.9137C8.70069 24.9144 8.70083 24.9155 8.70084 24.9169C8.70085 24.9199 8.70093 24.9246 8.70099 24.9309C8.70112 24.9436 8.70134 24.9628 8.70185 24.9879C8.70287 25.0381 8.70472 25.1119 8.70874 25.2039C8.7168 25.388 8.73291 25.644 8.7646 25.9309C8.8293 26.5166 8.95494 27.1862 9.18527 27.6457L9.37319 28.0201L8.97165 28.14C8.28443 28.3451 7.18995 28.6617 6.26862 28.9267C5.80777 29.0592 5.38979 29.179 5.08699 29.2656C4.93557 29.309 4.81283 29.3441 4.72805 29.3683C4.68572 29.3804 4.65285 29.3898 4.63053 29.3962C4.61936 29.3994 4.61071 29.4017 4.60498 29.4034C4.6022 29.4042 4.60006 29.4047 4.59862 29.4051C4.5979 29.4053 4.59732 29.4057 4.59695 29.4058L4.59645 29.4059L4.27709 29.4968L4.16798 29.1835L4.10677 29.0011Z" fill="#EFD7AB"/>
<path d="M11.0275 39.5015C9.37256 38.3184 6.12417 35.2188 5.03022 31.2315L4.97819 31.0347L4.90096 30.732L9.83476 28.835L9.9309 29.2206L9.93183 29.2234C9.93244 29.2258 9.93327 29.2298 9.93465 29.235C9.93744 29.2457 9.94198 29.2621 9.9479 29.2837C9.95973 29.3268 9.97775 29.3907 10.0023 29.4715C10.0514 29.6333 10.1261 29.862 10.2275 30.1268C10.4317 30.6599 10.7383 31.3238 11.1527 31.8833L11.3899 32.2033L8.13037 34.0403L6.86843 31.7367L8.56782 30.8768L8.88523 31.5041L7.83402 32.0361L8.40509 33.0787L10.3627 31.9753C10.011 31.429 9.7501 30.8459 9.57099 30.3783C9.48109 30.1436 9.41102 29.9351 9.35935 29.7712L5.74121 31.1622C6.78017 34.7836 9.71377 37.6586 11.3114 38.8386C11.3431 38.7974 11.3781 38.7521 11.4157 38.7032C11.6076 38.4537 11.8724 38.1091 12.164 37.7289C12.6499 37.0954 13.2092 36.3636 13.6301 35.8073C13.1815 35.5053 12.7568 35.0921 12.4324 34.7413C12.2402 34.5336 12.0765 34.3405 11.9556 34.1924L10.2809 35.5712L11.137 36.531L11.9564 35.6095L12.4818 36.0769L11.1376 37.5882L9.26969 35.4933L12.0717 33.186L12.292 33.4834C12.292 33.4835 12.2922 33.4837 12.2924 33.484C12.2928 33.4845 12.2935 33.4853 12.2944 33.4865C12.2962 33.4889 12.2991 33.4926 12.3029 33.4977C12.3105 33.5078 12.3221 33.5231 12.3374 33.543C12.3681 33.5828 12.4134 33.641 12.4713 33.7125C12.5872 33.8558 12.7524 34.0522 12.9484 34.264C13.3485 34.6966 13.8476 35.1604 14.3059 35.3929L14.6796 35.5824L14.4279 35.9174C13.9972 36.4909 13.3052 37.396 12.7218 38.1567C12.43 38.5372 12.165 38.882 11.973 39.1317C11.877 39.2565 11.7992 39.3577 11.7454 39.4276C11.7185 39.4624 11.6977 39.4896 11.6835 39.508C11.6764 39.5172 11.6709 39.5242 11.6673 39.5289C11.6655 39.5312 11.6641 39.5329 11.6632 39.5341C11.6627 39.5347 11.6625 39.5353 11.6622 39.5356L11.6619 39.536L11.4591 39.7989L11.1851 39.6118L11.0275 39.5015Z" fill="#EFD7AB"/>
<path d="M22.8066 44.2087C20.7724 44.2235 16.3226 43.6236 13.0949 41.0396L12.9372 40.9109L12.6969 40.7114L15.575 36.2777L15.8793 36.5333L15.8818 36.535C15.8837 36.5366 15.8866 36.5393 15.8909 36.5427C15.8994 36.5497 15.9127 36.5603 15.9302 36.5743C15.9651 36.6023 16.0172 36.6434 16.0845 36.6944C16.2193 36.7964 16.4141 36.9376 16.6517 37.0923C17.1302 37.4038 17.7683 37.7609 18.4324 37.9702L18.8123 38.0898L17.2538 41.4913L14.8793 40.3685L15.7493 38.6743L16.3747 38.9955L15.8366 40.0436L16.9112 40.5517L17.8471 38.5088C17.2416 38.2733 16.6879 37.9548 16.2683 37.6816C16.0576 37.5445 15.8784 37.4169 15.7403 37.3146L13.6295 40.5658C16.5979 42.886 20.6608 43.4892 22.647 43.5054C22.6484 43.4535 22.6501 43.3963 22.6518 43.3346C22.6605 43.0199 22.6723 42.5856 22.6849 42.1065C22.7059 41.3085 22.7287 40.3877 22.7425 39.6902C22.202 39.7094 21.6156 39.6245 21.147 39.5313C20.8694 39.4761 20.6235 39.4159 20.4387 39.3671L19.8935 41.4668L21.1501 41.7406L21.2719 40.5135L21.9716 40.583L21.7717 42.5957L19.0294 41.9978L19.9414 38.4845L20.2943 38.5958C20.2944 38.5958 20.2947 38.5959 20.295 38.596C20.2956 38.5962 20.2967 38.5964 20.2981 38.5968C20.301 38.5977 20.3055 38.5991 20.3115 38.6009C20.3237 38.6046 20.3421 38.6102 20.3661 38.6173C20.4143 38.6315 20.4852 38.6519 20.5741 38.6758C20.7521 38.7237 21.0011 38.7855 21.2842 38.8419C21.8621 38.9568 22.5384 39.0389 23.0459 38.9579L23.4596 38.8917L23.4528 39.3107C23.4411 40.0277 23.4129 41.1667 23.3877 42.1251C23.3751 42.6044 23.3632 43.0391 23.3545 43.3539C23.3501 43.5114 23.3466 43.639 23.3441 43.7271C23.3429 43.7711 23.342 43.8053 23.3413 43.8285C23.341 43.8401 23.3406 43.8491 23.3405 43.855C23.3404 43.8579 23.3402 43.8601 23.3402 43.8616C23.3402 43.8624 23.3403 43.863 23.3403 43.8634L23.3402 43.8639L23.3307 44.1958L22.999 44.2054L22.8066 44.2087Z" fill="#EFD7AB"/>
<path d="M35.0125 40.9748C33.3722 42.1712 29.4129 44.2799 25.2789 44.0828L25.0754 44.0712L24.7634 44.0508L24.4924 38.8123L24.8892 38.8405L24.8922 38.8405C24.8947 38.8406 24.8986 38.8411 24.9041 38.8414C24.9151 38.8421 24.9321 38.8428 24.9545 38.8439C24.9992 38.846 25.0656 38.8487 25.1501 38.8505C25.3193 38.854 25.5601 38.8541 25.8436 38.84C26.4144 38.8117 27.1414 38.7271 27.8026 38.5087L28.1808 38.3835L28.9153 42.0243L26.3311 42.5046L26.0413 40.6367L26.7369 40.5306L26.9162 41.6861L28.0858 41.4688L27.6445 39.2822C27.0154 39.4456 26.3795 39.512 25.8789 39.5368C25.6276 39.5493 25.4074 39.5511 25.2354 39.5493L25.434 43.3908C29.2028 43.527 32.8505 41.646 34.47 40.5027C34.4407 40.4601 34.4084 40.4132 34.3736 40.3626C34.1958 40.1047 33.9503 39.7487 33.6792 39.3565C33.2275 38.7029 32.7051 37.9498 32.3066 37.3813C31.8797 37.7114 31.3545 37.9846 30.9199 38.1826C30.6625 38.2998 30.4279 38.3947 30.2494 38.463L31.0407 40.4677L32.22 39.956L31.5981 38.8991L32.2061 38.5475L33.2262 40.2813L30.6521 41.3975L29.3279 38.0433L29.6794 37.9273C29.6795 37.9273 29.6798 37.9272 29.6801 37.9271C29.6807 37.9269 29.6817 37.9264 29.683 37.9259C29.6859 37.925 29.6903 37.9234 29.6963 37.9214C29.7083 37.9173 29.7265 37.9111 29.7502 37.9028C29.7976 37.8861 29.8671 37.8613 29.9531 37.8287C30.1255 37.7635 30.3637 37.6683 30.6262 37.5487C31.1622 37.3046 31.7587 36.9768 32.1225 36.6162L32.4189 36.3221L32.6595 36.6628C33.0711 37.2458 33.7173 38.1775 34.2597 38.9622C34.531 39.3548 34.7767 39.7109 34.9545 39.969C35.0435 40.098 35.1156 40.2026 35.1653 40.2749C35.1901 40.311 35.2095 40.339 35.2226 40.358C35.2291 40.3675 35.2341 40.3749 35.2375 40.3798C35.2391 40.3822 35.2403 40.384 35.2411 40.3853C35.2416 40.3859 35.2421 40.3863 35.2423 40.3866L35.2425 40.3871L35.4297 40.6594L35.1665 40.8602L35.0125 40.9748Z" fill="#EFD7AB"/>
<path d="M43.0424 31.1695C42.4302 33.1095 40.4895 37.1584 37.0373 39.4338L36.8663 39.5443L36.6024 39.7115L33.2702 35.6082L33.6071 35.3973L33.6095 35.3955C33.6116 35.3942 33.615 35.3922 33.6196 35.3893C33.6289 35.3833 33.6431 35.3739 33.6617 35.3616C33.6991 35.337 33.7543 35.3 33.8235 35.2517C33.9621 35.1548 34.1564 35.013 34.3767 34.8346C34.8204 34.4752 35.3566 33.978 35.7602 33.4107L35.9909 33.086L38.7474 35.616L36.9482 37.5295L35.6041 36.1802L36.1022 35.684L36.9337 36.5187L37.748 35.6527L36.0924 34.1333C35.682 34.6369 35.2084 35.0656 34.8193 35.3808C34.624 35.539 34.4474 35.6702 34.3076 35.7701L36.7511 38.7793C39.8725 36.6695 41.6972 32.9895 42.3241 31.1049C42.2751 31.0875 42.2212 31.0683 42.163 31.0477C41.8664 30.9425 41.4567 30.7975 41.0048 30.6381C40.252 30.3724 39.383 30.0673 38.7236 29.8394C38.5754 30.3596 38.3141 30.8913 38.0811 31.3085C37.9432 31.5556 37.8103 31.771 37.7069 31.9319L39.5368 33.097L40.1841 31.9857L39.0541 31.4921L39.3356 30.8477L41.1891 31.6575L39.776 34.0826L36.7141 32.1332L36.9286 31.8317C36.9287 31.8316 36.9289 31.8314 36.9291 31.8311C36.9294 31.8306 36.9299 31.8296 36.9308 31.8285C36.9325 31.826 36.9352 31.8221 36.9388 31.8169C36.9461 31.8065 36.957 31.7908 36.9712 31.77C36.9995 31.7286 37.0408 31.6674 37.0909 31.5902C37.1912 31.4356 37.3267 31.2177 37.4675 30.9657C37.7547 30.4513 38.0411 29.8331 38.1203 29.3253L38.1846 28.9113L38.5811 29.0468C39.2598 29.2786 40.3348 29.6561 41.2388 29.9752C41.691 30.1347 42.1009 30.2798 42.3978 30.3851C42.5462 30.4377 42.6666 30.4803 42.7496 30.5098C42.7911 30.5245 42.8234 30.5359 42.8452 30.5437C42.8562 30.5476 42.8646 30.5507 42.8702 30.5527C42.8729 30.5536 42.875 30.5545 42.8764 30.555C42.8771 30.5552 42.8778 30.5553 42.8781 30.5554L42.8786 30.5556L43.1914 30.6669L43.0984 30.9854L43.0424 31.1695Z" fill="#EFD7AB"/>
<path d="M43.884 18.5927C44.5116 20.5278 45.2815 24.9512 43.7913 28.808L43.7162 28.9972L43.5984 29.2865L38.5031 27.8794L38.655 27.5122L38.656 27.5094C38.6569 27.5071 38.6585 27.5034 38.6606 27.4984C38.6647 27.4881 38.6708 27.4722 38.6788 27.4514C38.695 27.4097 38.7185 27.3476 38.7467 27.268C38.8034 27.1087 38.8793 26.8804 38.9551 26.6072C39.1078 26.0571 39.2558 25.3409 39.2551 24.6447L39.2545 24.2464L42.9677 24.7065L42.6133 27.3091L40.7356 26.9905L40.8532 26.2974L42.0148 26.4944L42.1752 25.3165L39.9451 25.0403C39.9032 25.6886 39.7665 26.3126 39.6326 26.7951C39.5654 27.0373 39.4978 27.2466 39.4419 27.4092L43.1783 28.4411C44.4953 24.9113 43.845 20.8556 43.2616 18.957C43.2116 18.9713 43.1566 18.9869 43.0972 19.0039C42.7946 19.0905 42.3769 19.2102 41.9164 19.3427C41.1491 19.5633 40.2644 19.8193 39.5952 20.0165C39.7764 20.5261 39.8723 21.1108 39.9248 21.5857C39.9559 21.867 39.9727 22.1196 39.9819 22.3105L42.1483 22.1971L42.0303 20.9165L40.8236 21.1704L40.6788 20.4823L42.6582 20.0658L42.9151 22.8608L39.2904 23.0508L39.29 22.6808C39.29 22.6807 39.29 22.6803 39.29 22.68C39.29 22.6794 39.2899 22.6783 39.2899 22.6768C39.2899 22.6738 39.2898 22.6691 39.2897 22.6628C39.2896 22.6501 39.2894 22.6309 39.2889 22.6058C39.2878 22.5556 39.286 22.4818 39.282 22.3899C39.2739 22.2058 39.2578 21.9497 39.2261 21.6628C39.1614 21.0771 39.0358 20.4075 38.8055 19.9481L38.6175 19.5736L39.0191 19.4538C39.7063 19.2487 40.8008 18.932 41.7221 18.6671C42.1829 18.5345 42.6009 18.4147 42.9037 18.3281C43.0552 18.2848 43.1779 18.2497 43.2627 18.2255C43.305 18.2134 43.3379 18.2039 43.3602 18.1976C43.3714 18.1944 43.38 18.192 43.3857 18.1904C43.3885 18.1896 43.3907 18.189 43.3921 18.1886C43.3928 18.1884 43.3934 18.1881 43.3938 18.188L43.3943 18.1879L43.7136 18.0969L43.8227 18.4103L43.884 18.5927Z" fill="#EFD7AB"/>
<path d="M36.9632 8.0927C38.6182 9.27582 41.8666 12.3755 42.9605 16.3628L43.0125 16.5596L43.0898 16.8623L38.156 18.7592L38.0598 18.3736L38.0589 18.3708C38.0583 18.3684 38.0574 18.3645 38.0561 18.3592C38.0533 18.3486 38.0487 18.3321 38.0428 18.3106C38.031 18.2674 38.013 18.2035 37.9884 18.1227C37.9393 17.961 37.8647 17.7323 37.7632 17.4675C37.559 16.9343 37.2524 16.2704 36.838 15.711L36.6008 15.391L39.8603 13.554L41.1223 15.8575L39.4229 16.7174L39.1055 16.0901L40.1567 15.5581L39.5856 14.5156L37.628 15.619C37.9797 16.1652 38.2406 16.7483 38.4197 17.2159C38.5096 17.4506 38.5797 17.6592 38.6314 17.8231L42.2495 16.4321C41.2105 12.8106 38.277 9.93563 36.6793 8.75564C36.6476 8.79683 36.6127 8.8421 36.575 8.89108C36.3831 9.14055 36.1183 9.48513 35.8267 9.86536C35.3409 10.4988 34.7815 11.2306 34.3606 11.7869C34.8092 12.089 35.2339 12.5022 35.5584 12.8529C35.7505 13.0606 35.9142 13.2538 36.0351 13.4019L37.7098 12.023L36.8538 11.0632L36.0343 11.9847L35.5089 11.5174L36.8531 10.006L38.721 12.101L35.919 14.4082L35.6988 14.1108C35.6987 14.1107 35.6985 14.1105 35.6983 14.1102C35.698 14.1097 35.6972 14.1089 35.6963 14.1078C35.6945 14.1054 35.6917 14.1016 35.6879 14.0966C35.6802 14.0864 35.6686 14.0711 35.6533 14.0513C35.6226 14.0115 35.5773 13.9532 35.5194 13.8817C35.4035 13.7384 35.2383 13.5421 35.0423 13.3302C34.6422 12.8977 34.1431 12.4339 33.6848 12.2013L33.3111 12.0118L33.5628 11.6768C33.9935 11.1034 34.6855 10.1982 35.2689 9.43751C35.5608 9.057 35.8257 8.71222 36.0177 8.46258C36.1137 8.33774 36.1916 8.23654 36.2453 8.16668C36.2722 8.1318 36.293 8.10467 36.3072 8.08628C36.3143 8.07708 36.3198 8.07004 36.3235 8.06532C36.3252 8.06302 36.3266 8.06132 36.3275 8.06013C36.328 8.05954 36.3283 8.05892 36.3285 8.05861L36.3289 8.05825L36.5316 7.79529L36.8056 7.98241L36.9632 8.0927Z" fill="#EFD7AB"/>
<path d="M25.1846 3.38405C27.2189 3.36922 31.6686 3.96918 34.8963 6.55315L35.054 6.68185L35.2944 6.88142L32.4162 11.3151L32.1119 11.0595L32.1095 11.0578C32.1075 11.0562 32.1046 11.0535 32.1004 11.05C32.0918 11.043 32.0785 11.0324 32.0611 11.0185C32.0261 10.9905 31.974 10.9494 31.9067 10.8984C31.7719 10.7964 31.5771 10.6552 31.3395 10.5005C30.861 10.189 30.2229 9.83185 29.5589 9.62258L29.1789 9.503L30.7374 6.10148L33.1119 7.22423L32.2419 8.91843L31.6165 8.59729L32.1547 7.5492L31.08 7.04104L30.1441 9.08401C30.7496 9.31945 31.3033 9.638 31.723 9.91119C31.9336 10.0483 32.1128 10.1759 32.2509 10.2782L34.3617 7.02694C31.3934 4.70673 27.3304 4.10361 25.3442 4.08733C25.3428 4.1393 25.3411 4.19645 25.3394 4.25821C25.3307 4.57283 25.3189 5.00722 25.3063 5.48623C25.2853 6.2843 25.2625 7.20506 25.2487 7.90253C25.7892 7.88342 26.3756 7.96831 26.8443 8.06151C27.1218 8.11672 27.3677 8.17683 27.5526 8.22568L28.0978 6.12597L26.8411 5.85222L26.7193 7.07932L26.0196 7.00982L26.2195 4.99706L28.9618 5.59498L28.0498 9.10826L27.6969 8.99697C27.6968 8.99694 27.6965 8.99685 27.6962 8.99675C27.6956 8.99656 27.6945 8.99637 27.6931 8.99594C27.6902 8.99505 27.6857 8.9937 27.6797 8.99185C27.6675 8.98815 27.6492 8.98257 27.6251 8.97549C27.5769 8.96132 27.506 8.94082 27.4171 8.91693C27.2391 8.86909 26.9902 8.80723 26.7071 8.75092C26.1291 8.63597 25.4528 8.55383 24.9453 8.63487L24.5316 8.70111L24.5384 8.28212C24.5501 7.56504 24.5783 6.42603 24.6035 5.46769C24.6161 4.98832 24.628 4.55367 24.6367 4.23884C24.6411 4.08141 24.6446 3.95379 24.6471 3.86567C24.6483 3.82166 24.6492 3.78747 24.6499 3.76426C24.6502 3.75266 24.6506 3.7437 24.6507 3.73774C24.6508 3.73485 24.651 3.73265 24.651 3.73115C24.651 3.73041 24.6509 3.72975 24.6509 3.72936L24.651 3.72886L24.6606 3.39694L24.9922 3.3874L25.1846 3.38405Z" fill="#EFD7AB"/>
</svg>
