<svg width="150" height="128" viewBox="0 0 150 128" fill="none" xmlns="http://www.w3.org/2000/svg">
<path d="M107 55H64.629V66.3636L56.0403 57.8409H36C36.8589 78.0114 54.8952 80.5682 60.621 80.5682C60.621 90.7955 53.3683 93.5417 49.7419 93.6364V105H99.5564V93.6364C95.9301 93.3523 88.6774 90.7386 88.6774 82.5568C88.6774 74.375 95.9301 71.7614 99.5564 71.4773H107V55Z" fill="#EDD3A8"/>
<path d="M149.36 83.0778C147.111 83.0778 145.432 83.7526 144.325 85.1022C143.252 86.4518 142.716 88.2167 142.716 90.3969C142.716 92.0579 142.837 93.719 143.079 95.38C143.356 97.0411 143.633 98.7022 143.91 100.363C144.221 102.024 144.498 103.703 144.74 105.398C145.017 107.059 145.155 108.755 145.155 110.485C145.155 113.012 144.775 115.313 144.013 117.389C143.287 119.5 142.162 121.3 140.639 122.788C139.151 124.31 137.265 125.487 134.981 126.317C132.732 127.148 130.085 127.563 127.039 127.563H124.236V122.528C124.236 121.732 124.53 121.144 125.119 120.763C125.707 120.383 126.226 120.192 126.676 120.192H127.455C129.981 120.192 131.936 119.379 133.32 117.753C134.739 116.161 135.449 113.963 135.449 111.16C135.449 109.257 135.327 107.423 135.085 105.658C134.878 103.893 134.635 102.163 134.358 100.467C134.082 98.7714 133.822 97.1103 133.58 95.4839C133.372 93.8228 133.268 92.1617 133.268 90.5007C133.268 87.9053 133.995 85.6386 135.449 83.7007C136.902 81.7628 138.84 80.4478 141.262 79.7556C140.051 79.4442 138.944 78.9597 137.94 78.3022C136.971 77.6101 136.141 76.7969 135.449 75.8625C134.756 74.9282 134.22 73.89 133.839 72.748C133.459 71.5714 133.268 70.3429 133.268 69.0625C133.268 67.4015 133.372 65.7577 133.58 64.1312C133.822 62.4702 134.082 60.7918 134.358 59.0961C134.635 57.4005 134.878 55.6875 135.085 53.9572C135.327 52.1923 135.449 50.3409 135.449 48.403C135.449 45.6 134.739 43.3852 133.32 41.7588C131.936 40.1323 129.981 39.3191 127.455 39.3191H126.676C126.226 39.3191 125.707 39.1461 125.119 38.8C124.53 38.4193 124.236 37.831 124.236 37.0351V32H127.039C130.085 32 132.732 32.4153 134.981 33.2458C137.265 34.0763 139.151 35.2529 140.639 36.7756C142.162 38.2636 143.287 40.0631 144.013 42.174C144.775 44.2504 145.155 46.5516 145.155 49.0778C145.155 50.8081 145.017 52.5211 144.74 54.2168C144.498 55.8778 144.221 57.5389 143.91 59.2C143.633 60.861 143.356 62.5221 143.079 64.1832C142.837 65.8442 142.716 67.5053 142.716 69.1664C142.716 71.3465 143.252 73.1114 144.325 74.461C145.432 75.8106 147.111 76.4854 149.36 76.4854V83.0778Z" fill="#EDD3A8"/>
<path d="M21.9572 39.3191C19.3964 39.3191 17.4239 40.1323 16.0397 41.7588C14.6554 43.3852 13.9633 45.6 13.9633 48.403C13.9633 50.3409 14.0672 52.1923 14.2748 53.9572C14.517 55.6875 14.7593 57.4005 15.0015 59.0961C15.2783 60.7918 15.5206 62.4702 15.7282 64.1312C15.9705 65.7577 16.0916 67.4015 16.0916 69.0625C16.0916 70.3429 15.9012 71.5714 15.5206 72.748C15.1399 73.89 14.6035 74.9282 13.9114 75.8625C13.2193 76.7969 12.3715 77.6101 11.3679 78.3022C10.399 78.9597 9.30889 79.4442 8.0977 79.7556C10.5201 80.4478 12.458 81.7628 13.9114 83.7007C15.3649 85.6386 16.0916 87.9053 16.0916 90.5007C16.0916 92.1617 15.9705 93.8228 15.7282 95.4839C15.5206 97.1103 15.2783 98.7714 15.0015 100.467C14.7593 102.163 14.517 103.893 14.2748 105.658C14.0672 107.423 13.9633 109.257 13.9633 111.16C13.9633 113.963 14.6554 116.161 16.0397 117.753C17.4239 119.379 19.3964 120.192 21.9572 120.192H22.6839C23.1684 120.192 23.6875 120.383 24.2412 120.763C24.8295 121.144 25.1236 121.732 25.1236 122.528V127.563H22.3725C19.2926 127.563 16.6107 127.148 14.3267 126.317C12.0773 125.487 10.1913 124.31 8.66869 122.788C7.18065 121.3 6.05597 119.5 5.29465 117.389C4.56793 115.313 4.20457 113.012 4.20457 110.485C4.20457 108.755 4.32569 107.059 4.56793 105.398C4.84478 103.703 5.12162 102.024 5.39846 100.363C5.70991 98.7022 5.98676 97.0411 6.229 95.38C6.50584 93.719 6.64426 92.0579 6.64426 90.3969C6.64426 88.2167 6.09058 86.4518 4.9832 85.1022C3.91043 83.7526 2.24936 83.0778 0 83.0778V76.4854C2.24936 76.4854 3.91043 75.8106 4.9832 74.461C6.09058 73.1114 6.64426 71.3465 6.64426 69.1664C6.64426 67.5053 6.50584 65.8442 6.229 64.1832C5.98676 62.5221 5.70991 60.861 5.39846 59.2C5.12162 57.5389 4.84478 55.8778 4.56793 54.2168C4.32569 52.5211 4.20457 50.8081 4.20457 49.0778C4.20457 46.5516 4.56793 44.2504 5.29465 42.174C6.05597 40.0631 7.18065 38.2636 8.66869 36.7756C10.1913 35.2529 12.0773 34.0763 14.3267 33.2458C16.6107 32.4153 19.2926 32 22.3725 32H25.1236V37.0351C25.1236 37.831 24.8295 38.4193 24.2412 38.8C23.6875 39.1461 23.1684 39.3191 22.6839 39.3191H21.9572Z" fill="#EDD3A8"/>
<path d="M101.849 12.6782L112.414 23.98L112.797 22.3785C112.951 21.7378 112.676 21.2967 112.52 21.1562L104.753 12.7867C104.505 12.5189 103.956 12.4876 103.713 12.5055L101.849 12.6782Z" fill="#EDD3A8"/>
<path d="M85.2996 49.2957L74.8099 37.9234L74.4161 39.5223C74.2587 40.1619 74.5301 40.6049 74.6855 40.7464L82.3959 49.1677C82.6426 49.4372 83.1906 49.4721 83.4338 49.4559L85.2996 49.2957Z" fill="#EDD3A8"/>
<path d="M87.8618 19.4271L82.5861 24.4008L81.7317 23.4802L81.9307 18.1552L86.8522 18.3391L87.8618 19.4271Z" fill="#EDD3A8"/>
<path d="M85.2182 16.6622L81.0228 16.5055L80.3532 17.1268L80.1784 21.8063L76.1397 17.4541L76.3387 12.1292L81.1795 12.3101L85.2182 16.6622Z" fill="#EDD3A8"/>
<path d="M74.7612 11.1008L74.5864 15.7802L70.5477 11.4281L70.7467 6.10317L75.5875 6.28402L79.6262 10.6362L75.4308 10.4794L74.7612 11.1008Z" fill="#EDD3A8"/>
<path d="M69.1692 5.07472L68.9944 9.75421C68.0614 8.77676 65.9785 6.57139 65.1111 5.56946C64.2436 4.56754 64.9135 3.64997 65.3568 3.31643C66.0802 2.69711 67.7277 1.27206 68.5312 0.526459C69.3347 -0.219141 70.1529 0.371592 70.4615 0.76016L74.1895 4.77751L69.6714 4.60872L69.1692 5.07472Z" fill="#EDD3A8"/>
<rect width="34.4879" height="22.0201" rx="6" transform="matrix(0.733189 -0.680024 -0.680024 -0.733189 88.4548 50.7087)" fill="#EDD3A8"/>
<path d="M99.2071 42.4726C100.501 43.8677 102.681 43.9497 104.076 42.6558L104.567 42.2004C105.962 40.9064 106.044 38.7265 104.75 37.3314V37.3314L99.2071 42.4726V42.4726Z" fill="#EDD3A8"/>
</svg>
