<svg width="38" height="38" viewBox="0 0 38 38" fill="none" xmlns="http://www.w3.org/2000/svg">
<path d="M13.5212 35.5953C14.0615 35.3628 14.44 34.8255 14.44 34.2V30.096C14.44 29.9463 14.4522 29.7905 14.4712 29.6324C14.4605 29.6354 14.4507 29.6377 14.44 29.64C14.44 29.64 12.16 29.64 11.704 29.64C10.564 29.64 9.57602 29.184 9.12002 28.272C8.58802 27.284 8.36002 25.612 6.99202 24.7C6.76402 24.548 6.91602 24.32 7.37202 24.32C7.82802 24.396 8.81602 25.004 9.42402 25.84C10.108 26.676 10.792 27.36 12.008 27.36C13.8981 27.36 14.9112 27.265 15.5207 26.9382C16.2306 25.8825 17.2133 25.08 18.24 25.08V25.061C13.9323 24.9227 11.1804 23.4908 9.89902 21.28C7.11362 21.3119 4.68846 21.5878 3.3045 21.8173C3.26042 21.5688 3.22242 21.3187 3.18974 21.0672C4.55546 20.8422 6.87042 20.5755 9.53194 20.5245C9.44682 20.3148 9.3731 20.0997 9.31078 19.8793C6.64242 19.744 4.33962 19.8497 3.08866 19.953C3.07346 19.7007 3.05294 19.4491 3.0499 19.1938C4.30314 19.0912 6.54362 18.9886 9.14358 19.1094C9.08354 18.7294 9.04478 18.3411 9.04478 17.9367C9.04478 16.6447 9.50078 15.2767 10.3368 14.1367C9.95678 12.8447 9.42478 10.1087 10.4888 9.12075C12.5408 9.12075 13.9848 10.1087 14.6688 10.7167C15.96 10.184 17.404 9.87999 19 9.87999C20.596 9.87999 22.04 10.184 23.256 10.716C23.94 10.108 25.384 9.11999 27.436 9.11999C28.576 10.184 27.968 12.92 27.588 14.136C28.424 15.276 28.88 16.568 28.804 17.936C28.804 18.3038 28.7698 18.6587 28.7204 19.0068C31.3797 18.8761 33.6809 18.981 34.9555 19.0843C34.9539 19.3405 34.9304 19.5905 34.9167 19.8436C33.6467 19.7387 31.2877 19.6308 28.5639 19.7759C28.4962 20.0313 28.4141 20.2798 28.3169 20.5207C31.0118 20.5557 33.3823 20.8164 34.8133 21.0444C34.7807 21.2967 34.7427 21.5467 34.6986 21.7945C33.2455 21.5619 30.7686 21.2899 27.9505 21.2762C26.6851 23.4635 23.9833 24.89 19.76 25.0564V25.08C21.736 25.08 23.56 28.044 23.56 30.096V34.2C23.56 34.8255 23.9385 35.3628 24.4789 35.5953C31.4412 33.291 36.48 26.7246 36.48 19C36.48 9.36167 28.6391 1.51999 19 1.51999C9.36094 1.51999 1.52002 9.36167 1.52002 19C1.52002 26.7246 6.55882 33.291 13.5212 35.5953Z" fill="black"/>
</svg>
