<svg width="102" height="103" viewBox="0 0 102 103" fill="none" xmlns="http://www.w3.org/2000/svg">
<path d="M79.9889 51.3615C79.9889 35.0845 66.8361 21.8894 50.6113 21.8894C34.3865 21.8894 21.2337 35.0845 21.2337 51.3615C21.2337 67.6385 34.3865 80.8336 50.6113 80.8336C66.8361 80.8336 79.9889 67.6385 79.9889 51.3615ZM81.5351 51.3615C81.5351 68.4951 67.69 82.3847 50.6113 82.3847C33.5325 82.3847 19.6875 68.4951 19.6875 51.3615C19.6875 34.2279 33.5325 20.3383 50.6113 20.3383C67.69 20.3383 81.5351 34.2279 81.5351 51.3615Z" fill="#123E3D"/>
<path d="M26.5641 13.1646C30.143 10.5019 38.7817 5.80871 47.8018 6.24733L48.2457 6.27311L48.9265 6.3186L49.5178 17.9776L48.6521 17.9149H48.6456C48.6401 17.9146 48.6314 17.9136 48.6196 17.9129C48.5955 17.9115 48.5584 17.9097 48.5096 17.9074C48.412 17.9026 48.2671 17.8966 48.0827 17.8927C47.7135 17.8849 47.1882 17.8847 46.5696 17.916C45.3242 17.9789 43.7379 18.1672 42.2953 18.6534L41.47 18.9319L39.8674 10.8289L45.5059 9.7598L46.1382 13.9172L44.6207 14.1533L44.2293 11.5815L41.6775 12.0652L42.6402 16.9318C44.0129 16.5682 45.4003 16.4204 46.4926 16.3652C47.0409 16.3375 47.5214 16.3334 47.8968 16.3374L47.4634 7.78748C39.2402 7.48441 31.2813 11.6708 27.7477 14.2155C27.8118 14.3103 27.8821 14.4146 27.9582 14.5273C28.3459 15.1013 28.8817 15.8935 29.4733 16.7665C30.4588 18.2211 31.5986 19.8972 32.468 21.1626C33.3995 20.4279 34.5454 19.8198 35.4936 19.3793C36.0552 19.1183 36.5672 18.9072 36.9567 18.755L35.2302 14.2933L32.6569 15.4321L34.014 17.7845L32.6874 18.567L30.4615 14.7083L36.078 12.2239L38.9672 19.6891L38.2004 19.9474C38.2002 19.9475 38.1996 19.9477 38.1989 19.9479C38.1976 19.9484 38.1954 19.9494 38.1924 19.9505C38.1862 19.9526 38.1765 19.956 38.1634 19.9606C38.1372 19.9697 38.0975 19.9835 38.0459 20.002C37.9425 20.0391 37.7908 20.0944 37.6031 20.1668C37.227 20.3119 36.7073 20.5239 36.1345 20.79C34.965 21.3334 33.6636 22.0628 32.8698 22.8655L32.223 23.52L31.6982 22.7618C30.7999 21.4642 29.3901 19.3906 28.2066 17.644C27.6146 16.7704 27.0785 15.9777 26.6905 15.4033C26.4965 15.1161 26.3392 14.8833 26.2307 14.7224C26.1765 14.6421 26.1343 14.5798 26.1057 14.5374C26.0914 14.5163 26.0805 14.4998 26.0732 14.4889C26.0696 14.4836 26.067 14.4795 26.0652 14.4768C26.0643 14.4754 26.0632 14.4744 26.0627 14.4738L26.0622 14.4727L25.6538 13.8667L26.2282 13.4199L26.5641 13.1646Z" fill="#123E3D"/>
<path d="M8.70721 34.8289C10.0541 30.5606 14.3238 21.6528 21.9189 16.6466L22.2951 16.4036L22.8756 16.0358L30.2068 25.0634L29.4657 25.5273L29.4604 25.5312C29.4558 25.5341 29.4481 25.5385 29.4381 25.545C29.4176 25.5581 29.3864 25.5788 29.3453 25.6059C29.2632 25.66 29.1417 25.7413 28.9895 25.8477C28.6846 26.0608 28.2571 26.3727 27.7723 26.7654C26.7962 27.556 25.6165 28.6499 24.7286 29.8981L24.221 30.6124L18.1565 25.0461L22.115 20.8362L25.072 23.8049L23.9762 24.8964L22.1468 23.0601L20.3552 24.9653L23.9977 28.3082C24.9007 27.2002 25.9425 26.257 26.7986 25.5636C27.2283 25.2156 27.6167 24.9268 27.9244 24.707L22.5485 18.0866C15.6812 22.7284 11.6668 30.8246 10.2875 34.971C10.3953 35.0092 10.5138 35.0514 10.6419 35.0968C11.2946 35.3282 12.1958 35.6472 13.19 35.998C14.8463 36.5825 16.7582 37.2538 18.2088 37.7551C18.5349 36.6107 19.1098 35.4408 19.6223 34.523C19.9259 33.9794 20.2183 33.5054 20.4457 33.1515L16.4198 30.5881L14.9957 33.0331L17.4818 34.1192L16.8623 35.5368L12.7846 33.7551L15.8936 28.4198L22.6299 32.7085L22.1579 33.3719C22.1578 33.372 22.1574 33.3726 22.157 33.3732C22.1562 33.3743 22.1551 33.3764 22.1532 33.3791C22.1494 33.3845 22.1435 33.393 22.1356 33.4044C22.1196 33.4273 22.0955 33.462 22.0644 33.5075C22.002 33.5988 21.9111 33.7334 21.8009 33.9032C21.5802 34.2434 21.2821 34.7226 20.9725 35.2771C20.3404 36.409 19.7104 37.769 19.5363 38.8862L19.3947 39.7971L18.5223 39.499C17.0292 38.9888 14.6641 38.1583 12.6752 37.4564C11.6803 37.1053 10.7785 36.7862 10.1254 36.5546C9.79882 36.4389 9.53407 36.3451 9.35129 36.2802C9.26002 36.2478 9.18907 36.2227 9.14094 36.2056C9.11687 36.197 9.09835 36.1902 9.086 36.1859C9.08 36.1837 9.07548 36.1819 9.07237 36.1808C9.07083 36.1803 9.06934 36.1802 9.06855 36.1799L9.06755 36.1794L8.37927 35.9345L8.58394 35.2338L8.70721 34.8289Z" fill="#123E3D"/>
<path d="M6.85554 62.502C5.47468 58.2446 3.78076 48.5127 7.05941 40.0276L7.22471 39.6113L7.48389 38.9748L18.6938 42.0704L18.3596 42.8783L18.3575 42.8846C18.3555 42.8896 18.3518 42.8976 18.3474 42.9088C18.3384 42.9313 18.3249 42.9663 18.3072 43.0121C18.2717 43.104 18.22 43.2406 18.1578 43.4156C18.0332 43.7661 17.8662 44.2683 17.6994 44.8694C17.3634 46.0798 17.0378 47.6553 17.0394 49.1871L17.0407 50.0634L8.87139 49.0511L9.65102 43.3253L13.7821 44.0262L13.5234 45.5511L10.9678 45.1177L10.6149 47.709L15.5213 48.3168C15.6134 46.8904 15.9143 45.5176 16.2089 44.456C16.3568 43.9232 16.5055 43.4626 16.6284 43.105L8.40797 40.8347C5.51048 48.6006 6.94118 57.5235 8.22483 61.7004C8.33479 61.669 8.45577 61.6346 8.58648 61.5972C9.25222 61.4068 10.1712 61.1433 11.1844 60.8519C12.8724 60.3665 14.8189 59.8032 16.2911 59.3695C15.8924 58.2483 15.6814 56.9619 15.566 55.9171C15.4976 55.2983 15.4606 54.7425 15.4404 54.3224L10.6742 54.5719L10.9337 57.3895L13.5886 56.8308L13.9071 58.3447L9.55239 59.2609L8.98705 53.1117L16.9618 52.6938L16.9625 53.5079C16.9625 53.5081 16.9625 53.5088 16.9625 53.5095C16.9625 53.5109 16.9628 53.5133 16.9628 53.5165C16.9629 53.5231 16.963 53.5335 16.9632 53.5474C16.9635 53.5753 16.964 53.6176 16.9651 53.6727C16.9673 53.7832 16.9714 53.9456 16.9802 54.1478C16.998 54.5529 17.0334 55.1162 17.1031 55.7474C17.2455 57.036 17.5219 58.5092 18.0286 59.52L18.4421 60.3438L17.5586 60.6075C16.0467 61.0588 13.6388 61.7554 11.6118 62.3383C10.5979 62.6299 9.67829 62.8935 9.0121 63.0841C8.67897 63.1794 8.40892 63.2567 8.22242 63.3099C8.12929 63.3365 8.05696 63.3573 8.00784 63.3713C7.98328 63.3783 7.96426 63.3835 7.95165 63.3871C7.94553 63.3889 7.94082 63.39 7.93765 63.3909C7.93608 63.3914 7.93479 63.3922 7.93399 63.3924L7.93287 63.3925L7.23026 63.5926L6.9902 62.9033L6.85554 62.502Z" fill="#123E3D"/>
<path d="M22.0847 85.6013C18.4437 82.9984 11.297 76.1789 8.89027 67.4066L8.77581 66.9736L8.60588 66.3077L19.4606 62.1341L19.6721 62.9825L19.6742 62.9887C19.6755 62.994 19.6774 63.0026 19.6804 63.0142C19.6865 63.0377 19.6965 63.0738 19.7095 63.1212C19.7356 63.2162 19.7752 63.3568 19.8292 63.5345C19.9374 63.8904 20.1015 64.3935 20.3246 64.9761C20.7739 66.1491 21.4485 67.6097 22.3602 68.8406L22.8821 69.5446L15.7108 73.5861L12.9345 68.5181L16.6733 66.6264L17.3716 68.0064L15.0588 69.1769L16.3152 71.4705L20.6222 69.043C19.8484 67.8412 19.2744 66.5584 18.8803 65.5296C18.6825 65.0132 18.5284 64.5544 18.4147 64.1938L10.4545 67.2541C12.7403 75.2215 19.1944 81.5468 22.7094 84.1428C22.7792 84.0522 22.856 83.9526 22.9389 83.8448C23.3611 83.296 23.9436 82.5379 24.5851 81.7013C25.6541 80.3076 26.8846 78.6977 27.8107 77.4738C26.8237 76.8092 25.8894 75.9001 25.1755 75.1285C24.7528 74.6715 24.3926 74.2466 24.1267 73.9207L20.4421 76.9544L22.3255 79.0659L24.1284 77.0386L25.2844 78.0668L22.327 81.392L18.2174 76.7829L24.3822 71.7067L24.8666 72.361C24.8668 72.3612 24.8672 72.3617 24.8676 72.3623C24.8684 72.3634 24.8701 72.3652 24.872 72.3677C24.876 72.373 24.8823 72.3813 24.8907 72.3924C24.9075 72.4147 24.933 72.4483 24.9667 72.492C25.0342 72.5796 25.1339 72.7077 25.2612 72.8651C25.5163 73.1803 25.8796 73.6123 26.3109 74.0784C27.1912 75.0301 28.2891 76.0505 29.2974 76.5621L30.1196 76.9789L29.5659 77.7161C28.6183 78.9776 27.0959 80.9691 25.8123 82.6427C25.1703 83.4798 24.5874 84.2384 24.165 84.7876C23.9537 85.0622 23.7825 85.2849 23.6641 85.4386C23.605 85.5153 23.5592 85.575 23.5281 85.6155C23.5125 85.6357 23.5003 85.6512 23.4923 85.6616C23.4884 85.6666 23.4853 85.6704 23.4833 85.673C23.4823 85.6743 23.4817 85.6757 23.4812 85.6763L23.4804 85.6771L23.0343 86.2557L22.4315 85.844L22.0847 85.6013Z" fill="#123E3D"/>
<path d="M47.9975 95.9595C43.5219 95.9922 33.7322 94.6722 26.6309 88.9873L26.2839 88.7041L25.7552 88.265L32.0873 78.5107L32.7569 79.0729L32.7622 79.0768C32.7664 79.0803 32.773 79.0862 32.7822 79.0938C32.801 79.1091 32.8303 79.1325 32.8687 79.1632C32.9455 79.2248 33.0602 79.3153 33.2083 79.4274C33.5049 79.6518 33.9333 79.9626 34.4561 80.3029C35.5088 80.9882 36.9128 81.7739 38.3737 82.2343L39.2097 82.4974L35.7808 89.981L30.5567 87.5108L32.4708 83.7835L33.8467 84.49L32.6628 86.7959L35.027 87.9139L37.0861 83.4192C35.7539 82.9012 34.5358 82.2004 33.6125 81.5993C33.1491 81.2976 32.7548 81.0169 32.4509 80.7919L27.8072 87.9449C34.3377 93.0495 43.2766 94.3764 47.6462 94.4123C47.6494 94.2979 47.653 94.1722 47.6568 94.0363C47.676 93.3441 47.702 92.3884 47.7297 91.3346C47.7759 89.5788 47.826 87.553 47.8564 86.0185C46.6672 86.0606 45.377 85.8738 44.346 85.6688C43.7354 85.5473 43.1944 85.415 42.7877 85.3076L41.5883 89.9271L44.3529 90.5294L44.6209 87.8297L46.1603 87.9826L45.7206 92.4108L39.6872 91.0953L41.6938 83.3658L42.4702 83.6107C42.4704 83.6107 42.4711 83.6109 42.4717 83.6112C42.4731 83.6116 42.4755 83.612 42.4785 83.613C42.4848 83.6149 42.4948 83.6179 42.5081 83.6219C42.5348 83.6301 42.5752 83.6424 42.6281 83.6579C42.7342 83.6891 42.8902 83.7342 43.0857 83.7868C43.4773 83.892 44.025 84.0281 44.6479 84.152C45.9194 84.4049 47.4073 84.5856 48.5239 84.4073L49.4341 84.2616L49.419 85.1834C49.3933 86.761 49.3313 89.267 49.2758 91.3754C49.2481 92.43 49.222 93.3863 49.2028 94.0789C49.1932 94.4253 49.1855 94.7061 49.18 94.8999C49.1773 94.9968 49.1752 95.072 49.1738 95.123C49.1731 95.1486 49.1723 95.1683 49.1719 95.1814C49.1717 95.1877 49.1715 95.1926 49.1714 95.1959C49.1713 95.1975 49.1717 95.199 49.1716 95.1998L49.1714 95.2009L49.1503 95.9312L48.4207 95.9522L47.9975 95.9595Z" fill="#123E3D"/>
<path d="M74.8507 88.843C71.242 91.4751 62.5312 96.1144 53.436 95.6808L52.9884 95.6553L52.3019 95.6103L51.7057 84.0853L52.5787 84.1473L52.5852 84.1473C52.5907 84.1476 52.5994 84.1486 52.6114 84.1493C52.6356 84.1507 52.6731 84.1524 52.7223 84.1548C52.8207 84.1595 52.9668 84.1654 53.1527 84.1693C53.525 84.1769 54.0548 84.1772 54.6784 84.1463C55.9343 84.084 57.5338 83.8979 58.9884 83.4173L59.8206 83.142L61.4365 91.1519L55.751 92.2087L55.1134 88.099L56.6437 87.8657L57.0383 90.4079L59.6114 89.9298L58.6406 85.1191C57.2565 85.4785 55.8575 85.6246 54.7561 85.6792C54.2032 85.7066 53.7187 85.7106 53.3402 85.7067L53.7772 94.1583C62.069 94.4579 70.0941 90.3196 73.6572 87.8042C73.5926 87.7105 73.5217 87.6073 73.445 87.496C73.054 86.9286 72.5138 86.1455 71.9173 85.2825C70.9235 83.8447 69.7742 82.1878 68.8976 80.937C67.9584 81.6632 66.8029 82.2643 65.8467 82.6998C65.2804 82.9577 64.7642 83.1664 64.3714 83.3168L66.1124 87.7273L68.7071 86.6016L67.3387 84.2762L68.6764 83.5027L70.9208 87.3171L65.2575 89.7729L62.3442 82.3935L63.1174 82.1382C63.1176 82.1381 63.1183 82.1379 63.1189 82.1377C63.1203 82.1372 63.1224 82.1362 63.1255 82.1352C63.1317 82.1331 63.1415 82.1297 63.1547 82.1252C63.1811 82.1162 63.2211 82.1025 63.2732 82.0842C63.3774 82.0475 63.5304 81.9929 63.7197 81.9213C64.099 81.7779 64.6229 81.5683 65.2006 81.3052C66.3797 80.7682 67.692 80.0471 68.4924 79.2537L69.1446 78.6066L69.6738 79.3561C70.5796 80.6388 72.0011 82.6885 73.1945 84.4151C73.7914 85.2787 74.332 86.0623 74.7232 86.6301C74.9188 86.914 75.0775 87.1441 75.1869 87.3031C75.2416 87.3825 75.2841 87.4441 75.3129 87.486C75.3273 87.5069 75.3383 87.5232 75.3457 87.5339C75.3493 87.5391 75.3519 87.5432 75.3537 87.5459C75.3547 87.5473 75.3558 87.5482 75.3563 87.5489L75.3568 87.5499L75.7686 88.149L75.1894 88.5907L74.8507 88.843Z" fill="#123E3D"/>
<path d="M92.5164 67.2712C91.1696 71.5394 86.8998 80.4473 79.3048 85.4534L78.9286 85.6964L78.348 86.0643L71.0169 77.0367L71.758 76.5727L71.7632 76.5689C71.7679 76.5659 71.7755 76.5615 71.7856 76.555C71.806 76.5419 71.8372 76.5213 71.8783 76.4942C71.9605 76.44 72.0819 76.3588 72.2342 76.2524C72.539 76.0393 72.9665 75.7273 73.4513 75.3347C74.4274 74.5441 75.6072 73.4502 76.495 72.202L77.0027 71.4876L83.0671 77.0539L79.1087 81.2638L76.1516 78.2951L77.2474 77.2036L79.0768 79.0399L80.8684 77.1347L77.2259 73.7918C76.323 74.8999 75.2811 75.8431 74.4251 76.5364C73.9954 76.8845 73.6069 77.1732 73.2992 77.393L78.6752 84.0134C85.5424 79.3716 89.5568 71.2754 90.9361 67.1291C90.8284 67.0908 90.7099 67.0486 90.5817 67.0032C89.9291 66.7718 89.0278 66.4529 88.0337 66.1021C86.3774 65.5175 84.4654 64.8463 83.0148 64.3449C82.6887 65.4893 82.1138 66.6593 81.6013 67.5771C81.2978 68.1206 81.0054 68.5947 80.7779 68.9485L84.8038 71.5119L86.228 69.067L83.7419 67.9809L84.3613 66.5633L88.4391 68.3449L85.33 73.6803L78.5937 69.3915L79.0657 68.7282C79.0658 68.728 79.0662 68.7275 79.0666 68.7269C79.0674 68.7257 79.0686 68.7236 79.0704 68.721C79.0742 68.7156 79.0801 68.707 79.0881 68.6956C79.104 68.6727 79.1282 68.6381 79.1593 68.5925C79.2216 68.5012 79.3125 68.3667 79.4227 68.1968C79.6434 67.8567 79.9416 67.3774 80.2512 66.8229C80.8832 65.6911 81.5133 64.3311 81.6874 63.2138L81.8289 62.303L82.7013 62.6011C84.1944 63.1112 86.5595 63.9417 88.5485 64.6436C89.5433 64.9947 90.4451 65.3139 91.0982 65.5454C91.4248 65.6612 91.6896 65.755 91.8723 65.8199C91.9636 65.8523 92.0346 65.8774 92.0827 65.8945C92.1068 65.903 92.1253 65.9098 92.1376 65.9142C92.1436 65.9163 92.1482 65.9181 92.1513 65.9192C92.1528 65.9198 92.1543 65.9199 92.1551 65.9202L92.1561 65.9207L92.8444 66.1656L92.6397 66.8663L92.5164 67.2712Z" fill="#123E3D"/>
<path d="M94.3686 39.5984C95.7494 43.8558 97.4434 53.5878 94.1647 62.0728L93.9994 62.4891L93.7402 63.1256L82.5304 60.03L82.8645 59.2221L82.8666 59.2159C82.8686 59.2108 82.8723 59.2028 82.8767 59.1917C82.8857 59.1692 82.8992 59.1342 82.9169 59.0883C82.9524 58.9965 83.0041 58.8598 83.0663 58.6848C83.1909 58.3343 83.3579 57.8322 83.5248 57.231C83.8607 56.0207 84.1863 54.4451 84.1847 52.9134L84.1835 52.037L92.3527 53.0493L91.5731 58.7752L87.442 58.0742L87.7007 56.5494L90.2563 56.9827L90.6092 54.3914L85.7028 53.7837C85.6107 55.2101 85.3098 56.5829 85.0152 57.6444C84.8674 58.1772 84.7186 58.6378 84.5957 58.9954L92.8162 61.2657C95.7136 53.4998 94.2829 44.577 92.9993 40.4C92.8893 40.4314 92.7683 40.4658 92.6376 40.5032C91.9719 40.6937 91.0529 40.9571 90.0397 41.2485C88.3517 41.734 86.4052 42.2972 84.933 42.731C85.3317 43.8521 85.5427 45.1385 85.6581 46.1833C85.7265 46.8022 85.7636 47.3579 85.7837 47.778L90.5499 47.5285L90.2904 44.7109L87.6356 45.2697L87.3171 43.7557L91.6717 42.8395L92.2371 48.9887L84.2623 49.4066L84.2616 48.5925C84.2616 48.5923 84.2616 48.5916 84.2616 48.5909C84.2616 48.5895 84.2613 48.5871 84.2613 48.5839C84.2612 48.5773 84.2611 48.5669 84.2609 48.553C84.2606 48.5251 84.2602 48.4829 84.259 48.4277C84.2568 48.3172 84.2527 48.1549 84.2439 47.9526C84.2262 47.5475 84.1907 46.9842 84.121 46.353C83.9786 45.0644 83.7022 43.5913 83.1955 42.5805L82.7821 41.7566L83.6655 41.4929C85.1774 41.0417 87.5853 40.3451 89.6123 39.7621C90.6262 39.4705 91.5458 39.2069 92.212 39.0164C92.5452 38.9211 92.8152 38.8438 93.0017 38.7905C93.0948 38.7639 93.1672 38.7432 93.2163 38.7291C93.2408 38.7221 93.2599 38.7169 93.2725 38.7133C93.2786 38.7116 93.2833 38.7104 93.2865 38.7095C93.288 38.709 93.2893 38.7083 93.2901 38.7081L93.2912 38.7079L93.9939 38.5078L94.2339 39.1971L94.3686 39.5984Z" fill="#123E3D"/>
<path d="M79.1399 16.4991C82.7809 19.102 89.9276 25.9215 92.3343 34.6938L92.4488 35.1268L92.6187 35.7927L81.764 39.9663L81.5525 39.1179L81.5504 39.1117C81.5491 39.1064 81.5472 39.0978 81.5442 39.0862C81.5381 39.0627 81.5281 39.0266 81.5151 38.9792C81.489 38.8842 81.4494 38.7436 81.3954 38.5659C81.2873 38.21 81.1231 37.7069 80.9 37.1243C80.4507 35.9513 79.7761 34.4907 78.8644 33.2598L78.3425 32.5558L85.5138 28.5143L88.2901 33.5823L84.5513 35.4741L83.853 34.094L86.1658 32.9235L84.9094 30.6299L80.6025 33.0574C81.3762 34.2592 81.9502 35.542 82.3443 36.5708C82.5421 37.0872 82.6963 37.546 82.8099 37.9066L90.7701 34.8463C88.4843 26.8789 82.0302 20.5536 78.5152 17.9576C78.4454 18.0482 78.3686 18.1478 78.2857 18.2556C77.8635 18.8044 77.281 19.5625 76.6395 20.3991C75.5705 21.7928 74.34 23.4027 73.4139 24.6266C74.4009 25.2912 75.3352 26.2003 76.0491 26.9719C76.4719 27.4289 76.832 27.8538 77.0979 28.1797L80.7825 25.146L78.8991 23.0345L77.0962 25.0618L75.9402 24.0336L78.8976 20.7085L83.0072 25.3175L76.8424 30.3937L76.358 29.7394C76.3578 29.7392 76.3574 29.7387 76.357 29.7381C76.3562 29.737 76.3545 29.7352 76.3526 29.7327C76.3486 29.7274 76.3423 29.7191 76.3339 29.708C76.3171 29.6857 76.2916 29.6521 76.258 29.6084C76.1905 29.5208 76.0907 29.3927 75.9634 29.2353C75.7083 28.9201 75.345 28.4881 74.9137 28.022C74.0334 27.0703 72.9355 26.0499 71.9272 25.5383L71.105 25.1215L71.6587 24.3843C72.6063 23.1228 74.1287 21.1313 75.4123 19.4577C76.0543 18.6206 76.6372 17.862 77.0597 17.3128C77.2709 17.0382 77.4421 16.8155 77.5605 16.6618C77.6196 16.5851 77.6654 16.5254 77.6965 16.4849C77.7121 16.4647 77.7243 16.4492 77.7323 16.4388C77.7362 16.4338 77.7393 16.43 77.7413 16.4274C77.7423 16.4261 77.7429 16.4247 77.7434 16.4241L77.7442 16.4233L78.1903 15.8447L78.7931 16.2564L79.1399 16.4991Z" fill="#123E3D"/>
<path d="M53.2261 6.14102C57.7017 6.1084 67.4914 7.42835 74.5927 13.1133L74.9397 13.3964L75.4684 13.8355L69.1363 23.5899L68.4667 23.0276L68.4614 23.0238C68.4572 23.0203 68.4507 23.0144 68.4414 23.0068C68.4227 22.9914 68.3934 22.9681 68.355 22.9373C68.2781 22.8758 68.1634 22.7853 68.0153 22.6732C67.7187 22.4487 67.2903 22.138 66.7675 21.7977C65.7148 21.1124 64.3108 20.3267 62.8499 19.8663L62.0139 19.6032L65.4429 12.1196L70.667 14.5897L68.7528 18.3171L67.377 17.6106L68.5609 15.3047L66.1966 14.1867L64.1375 18.6814C65.4697 19.1993 66.6878 19.9002 67.6111 20.5012C68.0746 20.8029 68.4688 21.0836 68.7727 21.3087L73.4165 14.1557C66.886 9.05101 57.9471 7.72412 53.5775 7.6883C53.5743 7.80263 53.5706 7.92836 53.5668 8.06425C53.5476 8.75642 53.5216 9.71211 53.4939 10.766C53.4477 12.5218 53.3977 14.5475 53.3673 16.082C54.5565 16.04 55.8466 16.2267 56.8776 16.4318C57.4882 16.5533 58.0292 16.6855 58.4359 16.793L59.6354 12.1735L56.8707 11.5712L56.6028 14.2709L55.0633 14.118L55.503 9.68976L61.5364 11.0052L59.5298 18.7347L58.7534 18.4899C58.7532 18.4898 58.7526 18.4896 58.7519 18.4894C58.7505 18.489 58.7482 18.4885 58.7451 18.4876C58.7388 18.4856 58.7289 18.4827 58.7156 18.4786C58.6888 18.4705 58.6484 18.4582 58.5955 18.4426C58.4895 18.4114 58.3335 18.3664 58.1379 18.3138C57.7464 18.2085 57.1986 18.0724 56.5757 17.9485C55.3043 17.6957 53.8163 17.5149 52.6998 17.6932L51.7896 17.839L51.8046 16.9171C51.8303 15.3395 51.8923 12.8336 51.9478 10.7252C51.9756 9.67055 52.0016 8.71429 52.0208 8.02164C52.0304 7.67527 52.0382 7.39449 52.0436 7.20061C52.0464 7.1038 52.0484 7.02858 52.0498 6.97752C52.0506 6.95199 52.0513 6.93228 52.0517 6.91918C52.0519 6.91281 52.0522 6.90797 52.0523 6.90466C52.0523 6.90303 52.052 6.90158 52.052 6.90074L52.0522 6.89963L52.0733 6.16938L52.8029 6.1484L53.2261 6.14102Z" fill="#123E3D"/>
<path d="M62.6732 40.9666H71.9902V45.1784C68.1613 45.5188 60.5035 47.68 60.5035 53.6021M60.5035 53.6021C60.5035 56.7928 61.7798 59.0902 63.0561 59.0902C63.9495 59.0902 66.2468 59.0902 66.2468 59.0902V63.6849H59.0995C58.7166 62.5362 57.2361 60.2389 54.3772 60.2389C51.5182 60.2389 49.9526 62.5362 49.5272 63.6849H46.7192M60.5035 53.6021H53.6113M40.9759 63.6849V59.0902C43.0606 59.3455 47.2298 58.8605 47.2298 54.8784C47.2298 50.8963 43.9114 50.071 42.2522 50.156C40.4264 49.99 36.3883 48.4751 33.1903 46.2777M56.6543 40.9666H47.2298L45.3154 41.9877L29.2339 42.2429C29.9928 43.7161 31.47 45.0957 33.1903 46.2777M33.1903 46.2777H52.0797" stroke="#123E3D" stroke-linecap="round" stroke-linejoin="round"/>
<path d="M58.334 39.1797C59.3207 39.1798 60.1201 39.98 60.1201 40.9668C60.12 41.9534 59.3206 42.7528 58.334 42.7529C57.3472 42.7529 56.547 41.9535 56.5469 40.9668C56.5469 39.9799 57.3471 39.1797 58.334 39.1797ZM58.334 39.9453C57.7701 39.9453 57.3135 40.4029 57.3135 40.9668C57.3137 41.5304 57.7703 41.9872 58.334 41.9873C58.8977 41.9873 59.3552 41.5305 59.3555 40.9668C59.3555 40.4029 58.8979 39.9453 58.334 39.9453Z" fill="#123E3D"/>
<path d="M53.7393 44.5403C54.7259 44.5405 55.5254 45.3407 55.5254 46.3274C55.5254 47.3141 54.7259 48.1143 53.7393 48.1145C52.7524 48.1145 51.9522 47.3142 51.9521 46.3274C51.9521 45.3406 52.7524 44.5403 53.7393 44.5403ZM53.7383 45.3059C53.1744 45.3059 52.7168 45.7635 52.7168 46.3274C52.7169 46.8912 53.1744 47.3479 53.7383 47.3479C54.3019 47.3477 54.7587 46.8911 54.7588 46.3274C54.7588 45.7636 54.302 45.3061 53.7383 45.3059Z" fill="#123E3D"/>
<path d="M51.9526 51.6878C52.9394 51.6878 53.7397 52.4881 53.7397 53.4749C53.7396 54.4616 52.9394 55.2609 51.9526 55.261C50.9659 55.261 50.1656 54.4616 50.1655 53.4749C50.1655 52.488 50.9658 51.6878 51.9526 51.6878ZM51.9536 52.4534C51.3897 52.4534 50.9321 52.911 50.9321 53.4749C50.9323 54.0386 51.3898 54.4954 51.9536 54.4954C52.5172 54.4951 52.974 54.0385 52.9741 53.4749C52.9741 52.9111 52.5173 52.4536 51.9536 52.4534Z" fill="#123E3D"/>
<path d="M45.0601 61.8982C46.0467 61.8984 46.8462 62.6986 46.8462 63.6853C46.846 64.6718 46.0466 65.4712 45.0601 65.4714C44.0734 65.4714 43.2732 64.6719 43.2729 63.6853C43.2729 62.6984 44.0732 61.8982 45.0601 61.8982ZM45.0601 62.6638C44.4961 62.6638 44.0386 63.1214 44.0386 63.6853C44.0388 64.249 44.4963 64.7058 45.0601 64.7058C45.6237 64.7056 46.0803 64.2489 46.0806 63.6853C46.0806 63.1215 45.6238 62.664 45.0601 62.6638Z" fill="#123E3D"/>
</svg>
