<svg width="23" height="30" viewBox="0 0 23 30" fill="none" xmlns="http://www.w3.org/2000/svg">
<path d="M2.67816 4C2.67816 7.9659 5.16448 10.3263 10.1435 11.5711L15.4185 12.7761C20.1301 13.8422 22.9985 16.4898 22.9985 20.8036C23.0351 22.682 22.4143 24.5174 21.2412 26C21.2412 21.6958 18.9809 19.3705 13.5291 17.9724L8.34957 16.8122C4.20146 15.8802 1.00045 13.7033 1.00045 9.01763C0.981349 7.20783 1.5703 5.44273 2.67816 4Z" fill="#E84031"/>
<path opacity="0.7" d="M18.6083 20.0113C20.9656 21.4389 22 23.4373 22 26.3039C20.0481 28.6704 16.618 30 12.5874 30C5.80238 30 1.05437 26.8376 0 21.3441H6.51475C7.35391 23.8666 9.57443 25.0354 12.539 25.0354C16.1576 25.0354 18.5633 23.2074 18.6117 20" fill="#E84031"/>
<path opacity="0.7" d="M5.38514 10C4.31197 9.37541 3.43015 8.47912 2.8345 7.40391C2.24052 6.32869 1.95434 5.11762 2.00592 3.89662C3.88437 1.4778 7.15211 0 11.1353 0C18.0285 0 22.0167 3.56196 23 8.57521H16.749C16.0602 6.59874 14.3332 5.05964 11.1869 5.05964C7.8243 5.05964 5.53155 6.97482 5.39845 10" fill="#E84031"/>
</svg>
